999
dxflib 3.7.0.0
  0
SECTION
  2
HEADER
  9
$ACADVER
  1
AC1015
  9
$HANDSEED
  5
FFFF
  9
$DIMADEC
 70
0
  9
$DIMASZ
 40
2.5
  9
$DIMAUNIT
 70
0
  9
$DIMAZIN
 70
2
  9
$DIMDEC
 70
4
  9
$DIMEXE
 40
1.25
  9
$DIMEXO
 40
0.625
  9
$DIMGAP
 40
0.625
  9
$DIMLUNIT
 70
2
  9
$DIMSCALE
 40
1.0
  9
$DIMTSZ
 40
0.0
  9
$DIMTXT
 40
2.5
  9
$DIMZIN
 70
8
  9
$DWGCODEPAGE
  3
ANSI_1252
  9
$INSUNITS
 70
4
  9
$LTSCALE
 40
1.0
  0
ENDSEC
  0
SECTION
  2
TABLES
  0
TABLE
  2
VPORT
  5
8
100
AcDbSymbolTable
 70
1
  0
VPORT
  5
30
100
AcDbSymbolTableRecord
100
AcDbViewportTableRecord
  2
*Active
 70
0
 10
0.0
 20
0.0
 11
1.0
 21
1.0
 12
286.3055555555554861
 22
148.5
 13
0.0
 23
0.0
 14
10.0
 24
10.0
 15
10.0
 25
10.0
 16
0.0
 26
0.0
 36
1.0
 17
0.0
 27
0.0
 37
0.0
 40
297.0
 41
1.92798353909465
 42
50.0
 43
0.0
 44
0.0
 50
0.0
 51
0.0
 71
0
 72
100
 73
1
 74
3
 75
1
 76
1
 77
0
 78
0
281
0
 65
1
110
0.0
120
0.0
130
0.0
111
1.0
121
0.0
131
0.0
112
0.0
122
1.0
132
0.0
 79
0
146
0.0
  0
ENDTAB
  0
TABLE
  2
LTYPE
  5
5
100
AcDbSymbolTable
 70
3
  0
LTYPE
  5
16
100
AcDbSymbolTableRecord
100
AcDbLinetypeTableRecord
  2
Continuous
 70
0
  3
Solid line
 72
65
 73
0
 40
0.0
  0
LTYPE
  5
15
100
AcDbSymbolTableRecord
100
AcDbLinetypeTableRecord
  2
BYLAYER
 70
0
  3

 72
65
 73
0
 40
0.0
  0
LTYPE
  5
14
100
AcDbSymbolTableRecord
100
AcDbLinetypeTableRecord
  2
BYBLOCK
 70
0
  3

 72
65
 73
0
 40
0.0
  0
ENDTAB
  0
TABLE
  2
LAYER
  5
2
100
AcDbSymbolTable
 70
3
  0
LAYER
  5
31
100
AcDbSymbolTableRecord
100
AcDbLayerTableRecord
  2
pomocne
 70
1
 62
-1
420
16711680
  6
Continuous
370
25
390
F
  0
LAYER
  5
32
100
AcDbSymbolTableRecord
100
AcDbLayerTableRecord
  2
okvir
 70
0
 62
7
420
0
  6
Continuous
370
25
390
F
  0
LAYER
  5
10
100
AcDbSymbolTableRecord
100
AcDbLayerTableRecord
  2
0
 70
0
 62
7
420
0
  6
Continuous
370
25
390
F
  0
ENDTAB
  0
TABLE
  2
STYLE
  5
3
100
AcDbSymbolTable
 70
34
  0
STYLE
  5
33
100
AcDbSymbolTableRecord
100
AcDbTextStyleTableRecord
  2
Standard
 70
0
 40
0.0
 41
1.0
 50
0.0
 71
0
 42
2.5
  3

  4

1001
ACAD
1000
txt
1071
0
  0
STYLE
  5
34
100
AcDbSymbolTableRecord
100
AcDbTextStyleTableRecord
  2
textstyle0
 70
0
 40
0.0
 41
1.0
 50
0.0
 71
0
 42
1.0
  3

  4

1001
ACAD
1000
Monospace
1071
0
  0
STYLE
  5
35
100
AcDbSymbolTableRecord
100
AcDbTextStyleTableRecord
  2
textstyle1
 70
0
 40
0.0
 41
1.0
 50
0.0
 71
0
 42
1.0
  3

  4

1001
ACAD
1000
Monospace
1071
0
  0
STYLE
  5
36
100
AcDbSymbolTableRecord
100
AcDbTextStyleTableRecord
  2
textstyle2
 70
0
 40
0.0
 41
1.0
 50
0.0
 71
0
 42
1.0
  3

  4

1001
ACAD
1000
Monospace
1071
0
  0
STYLE
  5
37
100
AcDbSymbolTableRecord
100
AcDbTextStyleTableRecord
  2
textstyle3
 70
0
 40
0.0
 41
1.0
 50
0.0
 71
0
 42
1.0
  3

  4

1001
ACAD
1000
Monospace
1071
0
  0
STYLE
  5
38
100
AcDbSymbolTableRecord
100
AcDbTextStyleTableRecord
  2
textstyle4
 70
0
 40
0.0
 41
1.0
 50
0.0
 71
0
 42
1.0
  3

  4

1001
ACAD
1000
Monospace
1071
0
  0
STYLE
  5
39
100
AcDbSymbolTableRecord
100
AcDbTextStyleTableRecord
  2
textstyle5
 70
0
 40
0.0
 41
1.0
 50
0.0
 71
0
 42
1.0
  3

  4

1001
ACAD
1000
Monospace
1071
0
  0
STYLE
  5
3A
100
AcDbSymbolTableRecord
100
AcDbTextStyleTableRecord
  2
textstyle6
 70
0
 40
0.0
 41
1.0
 50
0.0
 71
0
 42
1.0
  3

  4

1001
ACAD
1000
Monospace
1071
0
  0
STYLE
  5
3B
100
AcDbSymbolTableRecord
100
AcDbTextStyleTableRecord
  2
textstyle7
 70
0
 40
0.0
 41
1.0
 50
0.0
 71
0
 42
1.0
  3

  4

1001
ACAD
1000
Monospace
1071
0
  0
STYLE
  5
3C
100
AcDbSymbolTableRecord
100
AcDbTextStyleTableRecord
  2
textstyle8
 70
0
 40
0.0
 41
1.0
 50
0.0
 71
0
 42
1.0
  3

  4

1001
ACAD
1000
Monospace
1071
0
  0
STYLE
  5
3D
100
AcDbSymbolTableRecord
100
AcDbTextStyleTableRecord
  2
textstyle9
 70
0
 40
0.0
 41
1.0
 50
0.0
 71
0
 42
1.0
  3

  4

1001
ACAD
1000
Monospace
1071
0
  0
STYLE
  5
3E
100
AcDbSymbolTableRecord
100
AcDbTextStyleTableRecord
  2
textstyle10
 70
0
 40
0.0
 41
1.0
 50
0.0
 71
0
 42
1.0
  3

  4

1001
ACAD
1000
Monospace
1071
0
  0
STYLE
  5
3F
100
AcDbSymbolTableRecord
100
AcDbTextStyleTableRecord
  2
textstyle11
 70
0
 40
0.0
 41
1.0
 50
0.0
 71
0
 42
1.0
  3

  4

1001
ACAD
1000
Monospace
1071
0
  0
STYLE
  5
40
100
AcDbSymbolTableRecord
100
AcDbTextStyleTableRecord
  2
textstyle12
 70
0
 40
0.0
 41
1.0
 50
0.0
 71
0
 42
1.0
  3

  4

1001
ACAD
1000
Monospace
1071
0
  0
STYLE
  5
41
100
AcDbSymbolTableRecord
100
AcDbTextStyleTableRecord
  2
textstyle13
 70
0
 40
0.0
 41
1.0
 50
0.0
 71
0
 42
1.0
  3

  4

1001
ACAD
1000
Monospace
1071
0
  0
STYLE
  5
42
100
AcDbSymbolTableRecord
100
AcDbTextStyleTableRecord
  2
textstyle14
 70
0
 40
0.0
 41
1.0
 50
0.0
 71
0
 42
1.0
  3

  4

1001
ACAD
1000
Monospace
1071
0
  0
STYLE
  5
43
100
AcDbSymbolTableRecord
100
AcDbTextStyleTableRecord
  2
textstyle15
 70
0
 40
0.0
 41
1.0
 50
0.0
 71
0
 42
1.0
  3

  4

1001
ACAD
1000
Monospace
1071
0
  0
STYLE
  5
44
100
AcDbSymbolTableRecord
100
AcDbTextStyleTableRecord
  2
textstyle16
 70
0
 40
0.0
 41
1.0
 50
0.0
 71
0
 42
1.0
  3

  4

1001
ACAD
1000
Monospace
1071
0
  0
STYLE
  5
45
100
AcDbSymbolTableRecord
100
AcDbTextStyleTableRecord
  2
textstyle17
 70
0
 40
0.0
 41
1.0
 50
0.0
 71
0
 42
1.0
  3

  4

1001
ACAD
1000
Monospace
1071
0
  0
STYLE
  5
46
100
AcDbSymbolTableRecord
100
AcDbTextStyleTableRecord
  2
textstyle18
 70
0
 40
0.0
 41
1.0
 50
0.0
 71
0
 42
1.0
  3

  4

1001
ACAD
1000
Monospace
1071
0
  0
STYLE
  5
47
100
AcDbSymbolTableRecord
100
AcDbTextStyleTableRecord
  2
textstyle19
 70
0
 40
0.0
 41
1.0
 50
0.0
 71
0
 42
1.0
  3

  4

1001
ACAD
1000
Monospace
1071
0
  0
STYLE
  5
48
100
AcDbSymbolTableRecord
100
AcDbTextStyleTableRecord
  2
textstyle20
 70
0
 40
0.0
 41
1.0
 50
0.0
 71
0
 42
1.0
  3

  4

1001
ACAD
1000
Monospace
1071
0
  0
STYLE
  5
49
100
AcDbSymbolTableRecord
100
AcDbTextStyleTableRecord
  2
textstyle21
 70
0
 40
0.0
 41
1.0
 50
0.0
 71
0
 42
1.0
  3

  4

1001
ACAD
1000
Monospace
1071
0
  0
STYLE
  5
4A
100
AcDbSymbolTableRecord
100
AcDbTextStyleTableRecord
  2
textstyle22
 70
0
 40
0.0
 41
1.0
 50
0.0
 71
0
 42
1.0
  3

  4

1001
ACAD
1000
Monospace
1071
0
  0
STYLE
  5
4B
100
AcDbSymbolTableRecord
100
AcDbTextStyleTableRecord
  2
textstyle23
 70
0
 40
0.0
 41
1.0
 50
0.0
 71
0
 42
1.0
  3

  4

1001
ACAD
1000
Monospace
1071
0
  0
STYLE
  5
4C
100
AcDbSymbolTableRecord
100
AcDbTextStyleTableRecord
  2
textstyle24
 70
0
 40
0.0
 41
1.0
 50
0.0
 71
0
 42
1.0
  3

  4

1001
ACAD
1000
Monospace
1071
0
  0
STYLE
  5
4D
100
AcDbSymbolTableRecord
100
AcDbTextStyleTableRecord
  2
textstyle25
 70
0
 40
0.0
 41
1.0
 50
0.0
 71
0
 42
1.0
  3

  4

1001
ACAD
1000
Monospace
1071
0
  0
STYLE
  5
4E
100
AcDbSymbolTableRecord
100
AcDbTextStyleTableRecord
  2
textstyle26
 70
0
 40
0.0
 41
1.0
 50
0.0
 71
0
 42
1.0
  3

  4

1001
ACAD
1000
Monospace
1071
0
  0
STYLE
  5
4F
100
AcDbSymbolTableRecord
100
AcDbTextStyleTableRecord
  2
textstyle27
 70
0
 40
0.0
 41
1.0
 50
0.0
 71
0
 42
1.0
  3

  4

1001
ACAD
1000
Monospace
1071
0
  0
STYLE
  5
50
100
AcDbSymbolTableRecord
100
AcDbTextStyleTableRecord
  2
textstyle28
 70
0
 40
0.0
 41
1.0
 50
0.0
 71
0
 42
1.0
  3

  4

1001
ACAD
1000
Monospace
1071
0
  0
STYLE
  5
51
100
AcDbSymbolTableRecord
100
AcDbTextStyleTableRecord
  2
textstyle29
 70
0
 40
0.0
 41
1.0
 50
0.0
 71
0
 42
1.0
  3

  4

1001
ACAD
1000
Monospace
1071
0
  0
STYLE
  5
52
100
AcDbSymbolTableRecord
100
AcDbTextStyleTableRecord
  2
textstyle30
 70
0
 40
0.0
 41
1.0
 50
0.0
 71
0
 42
1.0
  3

  4

1001
ACAD
1000
Monospace
1071
0
  0
STYLE
  5
53
100
AcDbSymbolTableRecord
100
AcDbTextStyleTableRecord
  2
textstyle31
 70
0
 40
0.0
 41
1.0
 50
0.0
 71
0
 42
1.0
  3

  4

1001
ACAD
1000
Monospace
1071
0
  0
STYLE
  5
54
100
AcDbSymbolTableRecord
100
AcDbTextStyleTableRecord
  2
textstyle32
 70
0
 40
0.0
 41
1.0
 50
0.0
 71
0
 42
1.0
  3

  4

1001
ACAD
1000
Monospace
1071
0
  0
ENDTAB
  0
TABLE
  2
VIEW
  5
6
100
AcDbSymbolTable
 70
0
  0
ENDTAB
  0
TABLE
  2
UCS
  5
7
100
AcDbSymbolTable
 70
0
  0
ENDTAB
  0
TABLE
  2
APPID
  5
9
100
AcDbSymbolTable
 70
1
  0
APPID
  5
12
100
AcDbSymbolTableRecord
100
AcDbRegAppTableRecord
  2
ACAD
 70
0
  0
APPID
  5
55
100
AcDbSymbolTableRecord
100
AcDbRegAppTableRecord
  2
QCAD
 70
0
  0
ENDTAB
  0
TABLE
  2
DIMSTYLE
  5
A
100
AcDbSymbolTable
 70
1
100
AcDbDimStyleTable
 71
0
  0
DIMSTYLE
105
27
100
AcDbSymbolTableRecord
100
AcDbDimStyleTableRecord
  2
Standard
 41
2.5
 42
0.625
 43
3.75
 44
1.25
 70
0
 73
0
 74
0
 77
1
 78
8
140
2.5
141
2.5
143
0.03937007874016
147
0.625
171
3
172
1
271
2
272
2
274
3
278
44
283
0
284
8
340
33
  0
ENDTAB
  0
TABLE
  2
BLOCK_RECORD
  5
1
100
AcDbSymbolTable
 70
1
  0
BLOCK_RECORD
  5
1F
100
AcDbSymbolTableRecord
100
AcDbBlockTableRecord
  2
*Model_Space
340
22
  0
BLOCK_RECORD
  5
1B
100
AcDbSymbolTableRecord
100
AcDbBlockTableRecord
  2
*Paper_Space
340
1E
  0
BLOCK_RECORD
  5
23
100
AcDbSymbolTableRecord
100
AcDbBlockTableRecord
  2
*Paper_Space0
340
26
  0
ENDTAB
  0
ENDSEC
  0
SECTION
  2
BLOCKS
  0
BLOCK
  5
20
100
AcDbEntity
  8
0
100
AcDbBlockBegin
  2
*Model_Space
 70
0
 10
0.0
 20
0.0
 30
0.0
  3
*Model_Space
  1

  0
ENDBLK
  5
21
100
AcDbEntity
  8
0
100
AcDbBlockEnd
  0
BLOCK
  5
1C
100
AcDbEntity
 67
1
  8
0
100
AcDbBlockBegin
  2
*Paper_Space
 70
0
 10
0.0
 20
0.0
 30
0.0
  3
*Paper_Space
  1

  0
ENDBLK
  5
1D
100
AcDbEntity
 67
1
  8
0
100
AcDbBlockEnd
  0
BLOCK
  5
24
100
AcDbEntity
  8
0
100
AcDbBlockBegin
  2
*Paper_Space0
 70
0
 10
0.0
 20
0.0
 30
0.0
  3
*Paper_Space0
  1

  0
ENDBLK
  5
25
100
AcDbEntity
  8
0
100
AcDbBlockEnd
  0
ENDSEC
  0
SECTION
  2
ENTITIES
  0
MTEXT
  5
56
100
AcDbEntity
100
AcDbMText
  8
okvir
 62
256
370
-1
 48
1.0
  6
BYLAYER
 10
45.0
 20
24.3999999999999986
 30
0.0
 40
1.0
 41
0.0
 71
5
 72
1
  1
\H4.5;\P#2-4.5
  7
textstyle0
 50
0.0
 73
2
 44
1.0
  0
LINE
  5
57
100
AcDbEntity
100
AcDbLine
  8
okvir
 62
256
370
-1
 48
1.0
  6
BYLAYER
 10
20.0
 20
20.0
 30
0.0
 11
70.0
 21
20.0
 31
0.0
  0
LINE
  5
58
100
AcDbEntity
100
AcDbLine
  8
okvir
 62
256
370
-1
 48
1.0
  6
BYLAYER
 10
20.0
 20
20.0
 30
0.0
 11
20.0000000000000036
 21
35.0
 31
0.0
  0
LINE
  5
59
100
AcDbEntity
100
AcDbLine
  8
okvir
 62
256
370
-1
 48
1.0
  6
BYLAYER
 10
70.0
 20
20.0
 30
0.0
 11
70.0
 21
35.0
 31
0.0
  0
LINE
  5
5A
100
AcDbEntity
100
AcDbLine
  8
okvir
 62
256
370
-1
 48
1.0
  6
BYLAYER
 10
20.0000000000000036
 20
35.0
 30
0.0
 11
70.0
 21
35.0
 31
0.0
  0
CIRCLE
  5
5B
100
AcDbEntity
100
AcDbCircle
  8
okvir
 62
7
420
0
370
-1
 48
1.0
  6
BYLAYER
 10
51.0
 20
30.0
 30
0.0
 40
2.25
  0
CIRCLE
  5
5C
100
AcDbEntity
100
AcDbCircle
  8
okvir
 62
7
420
0
370
-1
 48
1.0
  6
BYLAYER
 10
39.5220854453294734
 20
29.9167270094134707
 30
0.0
 40
1.0
  0
LINE
  5
5D
100
AcDbEntity
100
AcDbLine
  8
pomocne
 62
256
370
-1
 48
1.0
  6
BYLAYER
 10
20.0000000000000036
 20
35.0
 30
0.0
 11
28.0
 21
35.0
 31
0.0
  0
LINE
  5
5E
100
AcDbEntity
100
AcDbLine
  8
pomocne
 62
256
370
-1
 48
1.0
  6
BYLAYER
 10
62.0
 20
35.0
 30
0.0
 11
70.0
 21
35.0
 31
0.0
  0
LINE
  5
5F
100
AcDbEntity
100
AcDbLine
  8
pomocne
 62
256
370
-1
 48
1.0
  6
BYLAYER
 10
28.0
 20
35.0
 30
0.0
 11
28.0000000000000071
 21
20.0
 31
0.0
  0
LINE
  5
60
100
AcDbEntity
100
AcDbLine
  8
pomocne
 62
256
370
-1
 48
1.0
  6
BYLAYER
 10
62.0
 20
35.0
 30
0.0
 11
62.0
 21
20.0
 31
0.0
  0
MTEXT
  5
61
100
AcDbEntity
100
AcDbMText
  8
okvir
 62
7
420
0
370
-1
 48
1.0
  6
BYLAYER
 10
24.0000000000000036
 20
27.5
 30
0.0
 40
1.0
 41
0.0
 71
5
 72
1
  1
\H3;svrdlo
  7
textstyle1
 50
90.0
 73
2
 44
1.0
  0
LINE
  5
62
100
AcDbEntity
100
AcDbLine
  8
pomocne
 62
256
370
-1
 48
1.0
  6
BYLAYER
 10
20.0
 20
20.0
 30
0.0
 11
28.0
 21
35.0
 31
0.0
  0
LINE
  5
63
100
AcDbEntity
100
AcDbLine
  8
pomocne
 62
256
370
-1
 48
1.0
  6
BYLAYER
 10
20.0000000000000036
 20
35.0
 30
0.0
 11
28.0000000000000071
 21
20.0
 31
0.0
  0
LINE
  5
64
100
AcDbEntity
100
AcDbLine
  8
pomocne
 62
256
370
-1
 48
1.0
  6
BYLAYER
 10
62.0
 20
20.0
 30
0.0
 11
70.0
 21
35.0
 31
0.0
  0
LINE
  5
65
100
AcDbEntity
100
AcDbLine
  8
pomocne
 62
256
370
-1
 48
1.0
  6
BYLAYER
 10
62.0
 20
35.0
 30
0.0
 11
70.0
 21
20.0
 31
0.0
  0
LINE
  5
66
100
AcDbEntity
100
AcDbLine
  8
pomocne
 62
256
370
-1
 48
1.0
  6
BYLAYER
 10
28.0000000000000071
 20
20.0
 30
0.0
 11
62.0
 21
35.0
 31
0.0
  0
LINE
  5
67
100
AcDbEntity
100
AcDbLine
  8
pomocne
 62
256
370
-1
 48
1.0
  6
BYLAYER
 10
28.0
 20
35.0
 30
0.0
 11
62.0
 21
20.0
 31
0.0
  0
LINE
  5
68
100
AcDbEntity
100
AcDbLine
  8
pomocne
 62
256
370
-1
 48
1.0
  6
BYLAYER
 10
45.0
 20
27.5
 30
0.0
 11
45.0
 21
20.0
 31
0.0
  0
MTEXT
  5
69
100
AcDbEntity
100
AcDbMText
  8
okvir
 62
7
420
0
370
-1
 48
1.0
  6
BYLAYER
 10
66.0
 20
27.5
 30
0.0
 40
1.0
 41
0.0
 71
5
 72
1
  1
\H3;mm
  7
textstyle2
 50
0.0
 73
2
 44
1.0
  0
MTEXT
  5
6A
100
AcDbEntity
100
AcDbMText
  8
okvir
 62
256
370
-1
 48
1.0
  6
BYLAYER
 10
45.0
 20
39.3999999999999986
 30
0.0
 40
1.0
 41
0.0
 71
5
 72
1
  1
\H4.5;\P#5-7.5
  7
textstyle3
 50
0.0
 73
2
 44
1.0
  0
LINE
  5
6B
100
AcDbEntity
100
AcDbLine
  8
okvir
 62
256
370
-1
 48
1.0
  6
BYLAYER
 10
20.0000000000000036
 20
35.0
 30
0.0
 11
70.0
 21
35.0
 31
0.0
  0
LINE
  5
6C
100
AcDbEntity
100
AcDbLine
  8
okvir
 62
256
370
-1
 48
1.0
  6
BYLAYER
 10
20.0000000000000036
 20
35.0
 30
0.0
 11
20.0000000000000071
 21
50.0
 31
0.0
  0
LINE
  5
6D
100
AcDbEntity
100
AcDbLine
  8
okvir
 62
256
370
-1
 48
1.0
  6
BYLAYER
 10
70.0
 20
35.0
 30
0.0
 11
70.0
 21
50.0
 31
0.0
  0
LINE
  5
6E
100
AcDbEntity
100
AcDbLine
  8
okvir
 62
256
370
-1
 48
1.0
  6
BYLAYER
 10
20.0000000000000071
 20
50.0
 30
0.0
 11
70.0
 21
50.0
 31
0.0
  0
CIRCLE
  5
6F
100
AcDbEntity
100
AcDbCircle
  8
okvir
 62
256
370
-1
 48
1.0
  6
BYLAYER
 10
51.0
 20
45.0
 30
0.0
 40
3.75
  0
CIRCLE
  5
70
100
AcDbEntity
100
AcDbCircle
  8
okvir
 62
256
370
-1
 48
1.0
  6
BYLAYER
 10
39.5220854453294805
 20
44.9167270094134707
 30
0.0
 40
2.5
  0
LINE
  5
71
100
AcDbEntity
100
AcDbLine
  8
okvir
 62
256
370
-1
 48
1.0
  6
BYLAYER
 10
20.0000000000000071
 20
50.0
 30
0.0
 11
28.0000000000000036
 21
50.0
 31
0.0
  0
LINE
  5
72
100
AcDbEntity
100
AcDbLine
  8
okvir
 62
256
370
-1
 48
1.0
  6
BYLAYER
 10
62.0
 20
50.0
 30
0.0
 11
70.0
 21
50.0
 31
0.0
  0
LINE
  5
73
100
AcDbEntity
100
AcDbLine
  8
pomocne
 62
256
370
-1
 48
1.0
  6
BYLAYER
 10
28.0000000000000036
 20
50.0
 30
0.0
 11
28.0000000000000107
 21
35.0
 31
0.0
  0
LINE
  5
74
100
AcDbEntity
100
AcDbLine
  8
pomocne
 62
256
370
-1
 48
1.0
  6
BYLAYER
 10
62.0
 20
50.0
 30
0.0
 11
62.0
 21
35.0
 31
0.0
  0
MTEXT
  5
75
100
AcDbEntity
100
AcDbMText
  8
okvir
 62
256
370
-1
 48
1.0
  6
BYLAYER
 10
24.0000000000000071
 20
42.5
 30
0.0
 40
1.0
 41
0.0
 71
5
 72
1
  1
\H3;svrdlo
  7
textstyle4
 50
90.0
 73
2
 44
1.0
  0
LINE
  5
76
100
AcDbEntity
100
AcDbLine
  8
pomocne
 62
256
370
-1
 48
1.0
  6
BYLAYER
 10
20.0000000000000036
 20
35.0
 30
0.0
 11
28.0000000000000036
 21
50.0
 31
0.0
  0
LINE
  5
77
100
AcDbEntity
100
AcDbLine
  8
pomocne
 62
256
370
-1
 48
1.0
  6
BYLAYER
 10
20.0000000000000071
 20
50.0
 30
0.0
 11
28.0000000000000107
 21
35.0
 31
0.0
  0
LINE
  5
78
100
AcDbEntity
100
AcDbLine
  8
pomocne
 62
256
370
-1
 48
1.0
  6
BYLAYER
 10
62.0
 20
35.0
 30
0.0
 11
70.0
 21
50.0
 31
0.0
  0
LINE
  5
79
100
AcDbEntity
100
AcDbLine
  8
pomocne
 62
256
370
-1
 48
1.0
  6
BYLAYER
 10
62.0
 20
50.0
 30
0.0
 11
70.0
 21
35.0
 31
0.0
  0
LINE
  5
7A
100
AcDbEntity
100
AcDbLine
  8
pomocne
 62
256
370
-1
 48
1.0
  6
BYLAYER
 10
28.0000000000000107
 20
35.0
 30
0.0
 11
62.0
 21
50.0
 31
0.0
  0
LINE
  5
7B
100
AcDbEntity
100
AcDbLine
  8
pomocne
 62
256
370
-1
 48
1.0
  6
BYLAYER
 10
28.0000000000000036
 20
50.0
 30
0.0
 11
62.0
 21
35.0
 31
0.0
  0
LINE
  5
7C
100
AcDbEntity
100
AcDbLine
  8
pomocne
 62
256
370
-1
 48
1.0
  6
BYLAYER
 10
45.0
 20
42.5
 30
0.0
 11
45.0
 21
35.0
 31
0.0
  0
MTEXT
  5
7D
100
AcDbEntity
100
AcDbMText
  8
okvir
 62
256
370
-1
 48
1.0
  6
BYLAYER
 10
66.0
 20
42.5
 30
0.0
 40
1.0
 41
0.0
 71
5
 72
1
  1
\H3;mm
  7
textstyle5
 50
0.0
 73
2
 44
1.0
  0
MTEXT
  5
7E
100
AcDbEntity
100
AcDbMText
  8
okvir
 62
256
370
-1
 48
1.0
  6
BYLAYER
 10
45.0000000000000071
 20
54.3999999999999986
 30
0.0
 40
1.0
 41
0.0
 71
5
 72
1
  1
\H4.5;\P#8-9.5
  7
textstyle6
 50
0.0
 73
2
 44
1.0
  0
LINE
  5
7F
100
AcDbEntity
100
AcDbLine
  8
okvir
 62
256
370
-1
 48
1.0
  6
BYLAYER
 10
20.0000000000000071
 20
50.0
 30
0.0
 11
70.0
 21
50.0
 31
0.0
  0
LINE
  5
80
100
AcDbEntity
100
AcDbLine
  8
okvir
 62
256
370
-1
 48
1.0
  6
BYLAYER
 10
20.0000000000000071
 20
50.0
 30
0.0
 11
20.0000000000000107
 21
65.0
 31
0.0
  0
LINE
  5
81
100
AcDbEntity
100
AcDbLine
  8
okvir
 62
256
370
-1
 48
1.0
  6
BYLAYER
 10
70.0
 20
50.0
 30
0.0
 11
70.0
 21
65.0
 31
0.0
  0
LINE
  5
82
100
AcDbEntity
100
AcDbLine
  8
okvir
 62
256
370
-1
 48
1.0
  6
BYLAYER
 10
20.0000000000000107
 20
65.0
 30
0.0
 11
70.0
 21
65.0
 31
0.0
  0
CIRCLE
  5
83
100
AcDbEntity
100
AcDbCircle
  8
okvir
 62
256
370
-1
 48
1.0
  6
BYLAYER
 10
51.0000000000000071
 20
60.0
 30
0.0
 40
4.75
  0
CIRCLE
  5
84
100
AcDbEntity
100
AcDbCircle
  8
okvir
 62
256
370
-1
 48
1.0
  6
BYLAYER
 10
39.5220854453294805
 20
59.9167270094134707
 30
0.0
 40
4.0
  0
LINE
  5
85
100
AcDbEntity
100
AcDbLine
  8
okvir
 62
256
370
-1
 48
1.0
  6
BYLAYER
 10
20.0000000000000107
 20
65.0
 30
0.0
 11
28.0000000000000071
 21
65.0
 31
0.0
  0
LINE
  5
86
100
AcDbEntity
100
AcDbLine
  8
okvir
 62
256
370
-1
 48
1.0
  6
BYLAYER
 10
62.0000000000000071
 20
65.0
 30
0.0
 11
70.0
 21
65.0
 31
0.0
  0
LINE
  5
87
100
AcDbEntity
100
AcDbLine
  8
pomocne
 62
256
370
-1
 48
1.0
  6
BYLAYER
 10
28.0000000000000071
 20
65.0
 30
0.0
 11
28.0000000000000142
 21
50.0
 31
0.0
  0
LINE
  5
88
100
AcDbEntity
100
AcDbLine
  8
pomocne
 62
256
370
-1
 48
1.0
  6
BYLAYER
 10
62.0000000000000071
 20
65.0
 30
0.0
 11
62.0000000000000071
 21
50.0
 31
0.0
  0
MTEXT
  5
89
100
AcDbEntity
100
AcDbMText
  8
okvir
 62
256
370
-1
 48
1.0
  6
BYLAYER
 10
24.0000000000000107
 20
57.5
 30
0.0
 40
1.0
 41
0.0
 71
5
 72
1
  1
\H3;svrdlo
  7
textstyle7
 50
90.0
 73
2
 44
1.0
  0
LINE
  5
8A
100
AcDbEntity
100
AcDbLine
  8
pomocne
 62
256
370
-1
 48
1.0
  6
BYLAYER
 10
20.0000000000000071
 20
50.0
 30
0.0
 11
28.0000000000000071
 21
65.0
 31
0.0
  0
LINE
  5
8B
100
AcDbEntity
100
AcDbLine
  8
pomocne
 62
256
370
-1
 48
1.0
  6
BYLAYER
 10
20.0000000000000107
 20
65.0
 30
0.0
 11
28.0000000000000142
 21
50.0
 31
0.0
  0
LINE
  5
8C
100
AcDbEntity
100
AcDbLine
  8
pomocne
 62
256
370
-1
 48
1.0
  6
BYLAYER
 10
62.0000000000000071
 20
50.0
 30
0.0
 11
70.0
 21
65.0
 31
0.0
  0
LINE
  5
8D
100
AcDbEntity
100
AcDbLine
  8
pomocne
 62
256
370
-1
 48
1.0
  6
BYLAYER
 10
62.0000000000000071
 20
65.0
 30
0.0
 11
70.0
 21
50.0
 31
0.0
  0
LINE
  5
8E
100
AcDbEntity
100
AcDbLine
  8
pomocne
 62
256
370
-1
 48
1.0
  6
BYLAYER
 10
28.0000000000000142
 20
50.0
 30
0.0
 11
62.0000000000000071
 21
65.0
 31
0.0
  0
LINE
  5
8F
100
AcDbEntity
100
AcDbLine
  8
pomocne
 62
256
370
-1
 48
1.0
  6
BYLAYER
 10
28.0000000000000071
 20
65.0
 30
0.0
 11
62.0000000000000071
 21
50.0
 31
0.0
  0
LINE
  5
90
100
AcDbEntity
100
AcDbLine
  8
pomocne
 62
256
370
-1
 48
1.0
  6
BYLAYER
 10
45.0000000000000071
 20
57.5
 30
0.0
 11
45.0000000000000071
 21
50.0
 31
0.0
  0
MTEXT
  5
91
100
AcDbEntity
100
AcDbMText
  8
okvir
 62
256
370
-1
 48
1.0
  6
BYLAYER
 10
66.0
 20
57.5
 30
0.0
 40
1.0
 41
0.0
 71
5
 72
1
  1
\H3;mm
  7
textstyle8
 50
0.0
 73
2
 44
1.0
  0
MTEXT
  5
92
100
AcDbEntity
100
AcDbMText
  8
okvir
 62
256
370
-1
 48
1.0
  6
BYLAYER
 10
44.2786608866962865
 20
74.0147591901958606
 30
0.0
 40
1.0
 41
0.0
 71
5
 72
1
  1
\H4.5;\P# 10-14.5
  7
textstyle9
 50
0.0
 73
2
 44
1.0
  0
LINE
  5
93
100
AcDbEntity
100
AcDbLine
  8
okvir
 62
256
370
-1
 48
1.0
  6
BYLAYER
 10
20.0000000000000107
 20
65.0
 30
0.0
 11
70.0000000000000142
 21
65.0
 31
0.0
  0
LINE
  5
94
100
AcDbEntity
100
AcDbLine
  8
okvir
 62
256
370
-1
 48
1.0
  6
BYLAYER
 10
20.0000000000000107
 20
65.0
 30
0.0
 11
20.0000000000000142
 21
80.0
 31
0.0
  0
LINE
  5
95
100
AcDbEntity
100
AcDbLine
  8
okvir
 62
256
370
-1
 48
1.0
  6
BYLAYER
 10
70.0000000000000142
 20
65.0
 30
0.0
 11
70.0000000000000142
 21
80.0
 31
0.0
  0
LINE
  5
96
100
AcDbEntity
100
AcDbLine
  8
okvir
 62
256
370
-1
 48
1.0
  6
BYLAYER
 10
20.0000000000000142
 20
80.0
 30
0.0
 11
70.0000000000000142
 21
80.0
 31
0.0
  0
CIRCLE
  5
97
100
AcDbEntity
100
AcDbCircle
  8
okvir
 62
256
370
-1
 48
1.0
  6
BYLAYER
 10
53.5313489511110205
 20
72.5019290123456699
 30
0.0
 40
7.25
  0
CIRCLE
  5
98
100
AcDbEntity
100
AcDbCircle
  8
okvir
 62
256
370
-1
 48
1.0
  6
BYLAYER
 10
39.0
 20
72.0
 30
0.0
 40
5.0
  0
LINE
  5
99
100
AcDbEntity
100
AcDbLine
  8
okvir
 62
256
370
-1
 48
1.0
  6
BYLAYER
 10
20.0000000000000142
 20
80.0
 30
0.0
 11
28.0000000000000107
 21
80.0
 31
0.0
  0
LINE
  5
9A
100
AcDbEntity
100
AcDbLine
  8
okvir
 62
256
370
-1
 48
1.0
  6
BYLAYER
 10
62.0000000000000142
 20
80.0
 30
0.0
 11
70.0000000000000142
 21
80.0
 31
0.0
  0
LINE
  5
9B
100
AcDbEntity
100
AcDbLine
  8
pomocne
 62
256
370
-1
 48
1.0
  6
BYLAYER
 10
28.0000000000000107
 20
80.0
 30
0.0
 11
28.0000000000000178
 21
65.0
 31
0.0
  0
LINE
  5
9C
100
AcDbEntity
100
AcDbLine
  8
pomocne
 62
256
370
-1
 48
1.0
  6
BYLAYER
 10
62.0000000000000142
 20
80.0
 30
0.0
 11
62.0000000000000142
 21
65.0
 31
0.0
  0
MTEXT
  5
9D
100
AcDbEntity
100
AcDbMText
  8
okvir
 62
256
370
-1
 48
1.0
  6
BYLAYER
 10
24.0000000000000142
 20
72.5
 30
0.0
 40
1.0
 41
0.0
 71
5
 72
1
  1
\H3;svrdlo
  7
textstyle10
 50
90.0
 73
2
 44
1.0
  0
LINE
  5
9E
100
AcDbEntity
100
AcDbLine
  8
pomocne
 62
256
370
-1
 48
1.0
  6
BYLAYER
 10
20.0000000000000107
 20
65.0
 30
0.0
 11
28.0000000000000107
 21
80.0
 31
0.0
  0
LINE
  5
9F
100
AcDbEntity
100
AcDbLine
  8
pomocne
 62
256
370
-1
 48
1.0
  6
BYLAYER
 10
20.0000000000000142
 20
80.0
 30
0.0
 11
28.0000000000000178
 21
65.0
 31
0.0
  0
LINE
  5
A0
100
AcDbEntity
100
AcDbLine
  8
pomocne
 62
256
370
-1
 48
1.0
  6
BYLAYER
 10
62.0000000000000142
 20
65.0
 30
0.0
 11
70.0000000000000142
 21
80.0
 31
0.0
  0
LINE
  5
A1
100
AcDbEntity
100
AcDbLine
  8
pomocne
 62
256
370
-1
 48
1.0
  6
BYLAYER
 10
62.0000000000000142
 20
80.0
 30
0.0
 11
70.0000000000000142
 21
65.0
 31
0.0
  0
LINE
  5
A2
100
AcDbEntity
100
AcDbLine
  8
pomocne
 62
256
370
-1
 48
1.0
  6
BYLAYER
 10
28.0000000000000178
 20
65.0
 30
0.0
 11
62.0000000000000142
 21
80.0
 31
0.0
  0
LINE
  5
A3
100
AcDbEntity
100
AcDbLine
  8
pomocne
 62
256
370
-1
 48
1.0
  6
BYLAYER
 10
28.0000000000000107
 20
80.0
 30
0.0
 11
62.0000000000000142
 21
65.0
 31
0.0
  0
LINE
  5
A4
100
AcDbEntity
100
AcDbLine
  8
pomocne
 62
256
370
-1
 48
1.0
  6
BYLAYER
 10
45.0000000000000142
 20
72.5
 30
0.0
 11
45.0000000000000142
 21
65.0
 31
0.0
  0
MTEXT
  5
A5
100
AcDbEntity
100
AcDbMText
  8
okvir
 62
256
370
-1
 48
1.0
  6
BYLAYER
 10
66.0000000000000142
 20
72.5
 30
0.0
 40
1.0
 41
0.0
 71
5
 72
1
  1
\H3;mm
  7
textstyle11
 50
0.0
 73
2
 44
1.0
  0
MTEXT
  5
A6
100
AcDbEntity
100
AcDbMText
  8
okvir
 62
256
370
-1
 48
1.0
  6
BYLAYER
 10
45.0
 20
89.0
 30
0.0
 40
1.0
 41
0.0
 71
5
 72
1
  1
\H4.5;\P#15+
  7
textstyle12
 50
0.0
 73
2
 44
1.0
  0
LINE
  5
A7
100
AcDbEntity
100
AcDbLine
  8
okvir
 62
256
370
-1
 48
1.0
  6
BYLAYER
 10
20.0000000000000142
 20
80.0
 30
0.0
 11
70.0000000000000142
 21
80.0
 31
0.0
  0
LINE
  5
A8
100
AcDbEntity
100
AcDbLine
  8
okvir
 62
256
370
-1
 48
1.0
  6
BYLAYER
 10
20.0000000000000142
 20
80.0
 30
0.0
 11
20.0000000000000178
 21
95.0
 31
0.0
  0
LINE
  5
A9
100
AcDbEntity
100
AcDbLine
  8
okvir
 62
256
370
-1
 48
1.0
  6
BYLAYER
 10
70.0000000000000142
 20
80.0
 30
0.0
 11
70.0000000000000142
 21
95.0
 31
0.0
  0
LINE
  5
AA
100
AcDbEntity
100
AcDbLine
  8
okvir
 62
256
370
-1
 48
1.0
  6
BYLAYER
 10
20.0000000000000178
 20
95.0
 30
0.0
 11
70.0000000000000142
 21
95.0
 31
0.0
  0
CIRCLE
  5
AB
100
AcDbEntity
100
AcDbCircle
  8
okvir
 62
256
370
-1
 48
1.0
  6
BYLAYER
 10
45.0000000000000071
 20
87.5
 30
0.0
 40
7.5
  0
LINE
  5
AC
100
AcDbEntity
100
AcDbLine
  8
okvir
 62
256
370
-1
 48
1.0
  6
BYLAYER
 10
20.0000000000000178
 20
95.0
 30
0.0
 11
28.0000000000000142
 21
95.0
 31
0.0
  0
LINE
  5
AD
100
AcDbEntity
100
AcDbLine
  8
okvir
 62
256
370
-1
 48
1.0
  6
BYLAYER
 10
62.0000000000000142
 20
95.0
 30
0.0
 11
70.0000000000000142
 21
95.0
 31
0.0
  0
LINE
  5
AE
100
AcDbEntity
100
AcDbLine
  8
pomocne
 62
256
370
-1
 48
1.0
  6
BYLAYER
 10
28.0000000000000142
 20
95.0
 30
0.0
 11
28.0000000000000213
 21
80.0
 31
0.0
  0
LINE
  5
AF
100
AcDbEntity
100
AcDbLine
  8
pomocne
 62
256
370
-1
 48
1.0
  6
BYLAYER
 10
62.0000000000000142
 20
95.0
 30
0.0
 11
62.0000000000000142
 21
80.0
 31
0.0
  0
MTEXT
  5
B0
100
AcDbEntity
100
AcDbMText
  8
okvir
 62
256
370
-1
 48
1.0
  6
BYLAYER
 10
24.0000000000000178
 20
87.5
 30
0.0
 40
1.0
 41
0.0
 71
5
 72
1
  1
\H3;svrdlo
  7
textstyle13
 50
90.0
 73
2
 44
1.0
  0
LINE
  5
B1
100
AcDbEntity
100
AcDbLine
  8
pomocne
 62
256
370
-1
 48
1.0
  6
BYLAYER
 10
20.0000000000000142
 20
80.0
 30
0.0
 11
28.0000000000000142
 21
95.0
 31
0.0
  0
LINE
  5
B2
100
AcDbEntity
100
AcDbLine
  8
pomocne
 62
256
370
-1
 48
1.0
  6
BYLAYER
 10
20.0000000000000178
 20
95.0
 30
0.0
 11
28.0000000000000213
 21
80.0
 31
0.0
  0
LINE
  5
B3
100
AcDbEntity
100
AcDbLine
  8
pomocne
 62
256
370
-1
 48
1.0
  6
BYLAYER
 10
62.0000000000000142
 20
80.0
 30
0.0
 11
70.0000000000000142
 21
95.0
 31
0.0
  0
LINE
  5
B4
100
AcDbEntity
100
AcDbLine
  8
pomocne
 62
256
370
-1
 48
1.0
  6
BYLAYER
 10
62.0000000000000142
 20
95.0
 30
0.0
 11
70.0000000000000142
 21
80.0
 31
0.0
  0
LINE
  5
B5
100
AcDbEntity
100
AcDbLine
  8
pomocne
 62
256
370
-1
 48
1.0
  6
BYLAYER
 10
28.0000000000000213
 20
80.0
 30
0.0
 11
62.0000000000000142
 21
95.0
 31
0.0
  0
LINE
  5
B6
100
AcDbEntity
100
AcDbLine
  8
pomocne
 62
256
370
-1
 48
1.0
  6
BYLAYER
 10
28.0000000000000142
 20
95.0
 30
0.0
 11
62.0000000000000142
 21
80.0
 31
0.0
  0
LINE
  5
B7
100
AcDbEntity
100
AcDbLine
  8
pomocne
 62
256
370
-1
 48
1.0
  6
BYLAYER
 10
45.0000000000000142
 20
87.5
 30
0.0
 11
45.0000000000000142
 21
80.0
 31
0.0
  0
MTEXT
  5
B8
100
AcDbEntity
100
AcDbMText
  8
okvir
 62
256
370
-1
 48
1.0
  6
BYLAYER
 10
66.0000000000000142
 20
87.5
 30
0.0
 40
1.0
 41
0.0
 71
5
 72
1
  1
\H3;mm
  7
textstyle14
 50
0.0
 73
2
 44
1.0
  0
MTEXT
  5
B9
100
AcDbEntity
100
AcDbMText
  8
okvir
 62
256
370
-1
 48
1.0
  6
BYLAYER
 10
45.0000000000000142
 20
99.4000000000000057
 30
0.0
 40
1.0
 41
0.0
 71
5
 72
1
  1
\H4.5;za beton
  7
textstyle15
 50
0.0
 73
2
 44
1.0
  0
LINE
  5
BA
100
AcDbEntity
100
AcDbLine
  8
okvir
 62
256
370
-1
 48
1.0
  6
BYLAYER
 10
20.0000000000000178
 20
95.0
 30
0.0
 11
70.0000000000000142
 21
95.0
 31
0.0
  0
LINE
  5
BB
100
AcDbEntity
100
AcDbLine
  8
okvir
 62
256
370
-1
 48
1.0
  6
BYLAYER
 10
20.0000000000000178
 20
95.0
 30
0.0
 11
20.0000000000000213
 21
110.0
 31
0.0
  0
LINE
  5
BC
100
AcDbEntity
100
AcDbLine
  8
okvir
 62
256
370
-1
 48
1.0
  6
BYLAYER
 10
70.0000000000000142
 20
95.0
 30
0.0
 11
70.0000000000000142
 21
110.0
 31
0.0
  0
LINE
  5
BD
100
AcDbEntity
100
AcDbLine
  8
okvir
 62
256
370
-1
 48
1.0
  6
BYLAYER
 10
20.0000000000000213
 20
110.0
 30
0.0
 11
70.0000000000000142
 21
110.0
 31
0.0
  0
LINE
  5
BE
100
AcDbEntity
100
AcDbLine
  8
okvir
 62
256
370
-1
 48
1.0
  6
BYLAYER
 10
20.0000000000000213
 20
110.0
 30
0.0
 11
28.0000000000000178
 21
110.0
 31
0.0
  0
LINE
  5
BF
100
AcDbEntity
100
AcDbLine
  8
okvir
 62
256
370
-1
 48
1.0
  6
BYLAYER
 10
62.0000000000000142
 20
110.0
 30
0.0
 11
70.0000000000000142
 21
110.0
 31
0.0
  0
LINE
  5
C0
100
AcDbEntity
100
AcDbLine
  8
pomocne
 62
256
370
-1
 48
1.0
  6
BYLAYER
 10
28.0000000000000178
 20
110.0
 30
0.0
 11
28.0000000000000249
 21
95.0
 31
0.0
  0
LINE
  5
C1
100
AcDbEntity
100
AcDbLine
  8
pomocne
 62
256
370
-1
 48
1.0
  6
BYLAYER
 10
62.0000000000000142
 20
110.0
 30
0.0
 11
62.0000000000000142
 21
95.0
 31
0.0
  0
MTEXT
  5
C2
100
AcDbEntity
100
AcDbMText
  8
okvir
 62
256
370
-1
 48
1.0
  6
BYLAYER
 10
24.0000000000000213
 20
102.5
 30
0.0
 40
1.0
 41
0.0
 71
5
 72
1
  1
\H3;svrdlo
  7
textstyle16
 50
90.0
 73
2
 44
1.0
  0
LINE
  5
C3
100
AcDbEntity
100
AcDbLine
  8
pomocne
 62
256
370
-1
 48
1.0
  6
BYLAYER
 10
20.0000000000000178
 20
95.0
 30
0.0
 11
28.0000000000000178
 21
110.0
 31
0.0
  0
LINE
  5
C4
100
AcDbEntity
100
AcDbLine
  8
pomocne
 62
256
370
-1
 48
1.0
  6
BYLAYER
 10
20.0000000000000213
 20
110.0
 30
0.0
 11
28.0000000000000249
 21
95.0
 31
0.0
  0
LINE
  5
C5
100
AcDbEntity
100
AcDbLine
  8
pomocne
 62
256
370
-1
 48
1.0
  6
BYLAYER
 10
62.0000000000000142
 20
95.0
 30
0.0
 11
70.0000000000000142
 21
110.0
 31
0.0
  0
LINE
  5
C6
100
AcDbEntity
100
AcDbLine
  8
pomocne
 62
256
370
-1
 48
1.0
  6
BYLAYER
 10
62.0000000000000142
 20
110.0
 30
0.0
 11
70.0000000000000142
 21
95.0
 31
0.0
  0
LINE
  5
C7
100
AcDbEntity
100
AcDbLine
  8
pomocne
 62
256
370
-1
 48
1.0
  6
BYLAYER
 10
28.0000000000000249
 20
95.0
 30
0.0
 11
62.0000000000000142
 21
110.0
 31
0.0
  0
LINE
  5
C8
100
AcDbEntity
100
AcDbLine
  8
pomocne
 62
256
370
-1
 48
1.0
  6
BYLAYER
 10
28.0000000000000178
 20
110.0
 30
0.0
 11
62.0000000000000142
 21
95.0
 31
0.0
  0
LINE
  5
C9
100
AcDbEntity
100
AcDbLine
  8
pomocne
 62
256
370
-1
 48
1.0
  6
BYLAYER
 10
45.0000000000000142
 20
102.5
 30
0.0
 11
45.0000000000000142
 21
95.0
 31
0.0
  0
MTEXT
  5
CA
100
AcDbEntity
100
AcDbMText
  8
okvir
 62
256
370
-1
 48
1.0
  6
BYLAYER
 10
66.0000000000000142
 20
102.5
 30
0.0
 40
1.0
 41
0.0
 71
5
 72
1
  1
\H3;mm
  7
textstyle17
 50
0.0
 73
2
 44
1.0
  0
MTEXT
  5
CB
100
AcDbEntity
100
AcDbMText
  8
okvir
 62
256
370
-1
 48
1.0
  6
BYLAYER
 10
45.0000000000000213
 20
114.4000000000000057
 30
0.0
 40
1.0
 41
0.0
 71
5
 72
1
  1
\H4.5;\P#2-4.5
  7
textstyle18
 50
0.0
 73
2
 44
1.0
  0
LINE
  5
CC
100
AcDbEntity
100
AcDbLine
  8
okvir
 62
256
370
-1
 48
1.0
  6
BYLAYER
 10
20.0000000000000213
 20
110.0
 30
0.0
 11
70.0000000000000284
 21
110.0
 31
0.0
  0
LINE
  5
CD
100
AcDbEntity
100
AcDbLine
  8
okvir
 62
256
370
-1
 48
1.0
  6
BYLAYER
 10
20.0000000000000213
 20
110.0
 30
0.0
 11
20.0000000000000249
 21
125.0
 31
0.0
  0
LINE
  5
CE
100
AcDbEntity
100
AcDbLine
  8
okvir
 62
256
370
-1
 48
1.0
  6
BYLAYER
 10
70.0000000000000284
 20
110.0
 30
0.0
 11
70.0000000000000284
 21
125.0
 31
0.0
  0
LINE
  5
CF
100
AcDbEntity
100
AcDbLine
  8
okvir
 62
256
370
-1
 48
1.0
  6
BYLAYER
 10
20.0000000000000249
 20
125.0
 30
0.0
 11
70.0000000000000284
 21
125.0
 31
0.0
  0
CIRCLE
  5
D0
100
AcDbEntity
100
AcDbCircle
  8
okvir
 62
256
370
-1
 48
1.0
  6
BYLAYER
 10
51.0000000000000213
 20
120.0
 30
0.0
 40
2.25
  0
CIRCLE
  5
D1
100
AcDbEntity
100
AcDbCircle
  8
okvir
 62
256
370
-1
 48
1.0
  6
BYLAYER
 10
39.5220854453294947
 20
119.9167270094134778
 30
0.0
 40
1.0
  0
LINE
  5
D2
100
AcDbEntity
100
AcDbLine
  8
okvir
 62
256
370
-1
 48
1.0
  6
BYLAYER
 10
20.0000000000000249
 20
125.0
 30
0.0
 11
28.0000000000000213
 21
125.0
 31
0.0
  0
LINE
  5
D3
100
AcDbEntity
100
AcDbLine
  8
okvir
 62
256
370
-1
 48
1.0
  6
BYLAYER
 10
62.0000000000000213
 20
125.0
 30
0.0
 11
70.0000000000000284
 21
125.0
 31
0.0
  0
LINE
  5
D4
100
AcDbEntity
100
AcDbLine
  8
okvir
 62
256
370
-1
 48
1.0
  6
BYLAYER
 10
28.0000000000000213
 20
125.0
 30
0.0
 11
28.0000000000000284
 21
110.0
 31
0.0
  0
LINE
  5
D5
100
AcDbEntity
100
AcDbLine
  8
okvir
 62
256
370
-1
 48
1.0
  6
BYLAYER
 10
62.0000000000000213
 20
125.0
 30
0.0
 11
62.0000000000000213
 21
110.0
 31
0.0
  0
MTEXT
  5
D6
100
AcDbEntity
100
AcDbMText
  8
okvir
 62
256
370
-1
 48
1.0
  6
BYLAYER
 10
24.0000000000000249
 20
117.5
 30
0.0
 40
1.0
 41
0.0
 71
5
 72
1
  1
\H3;svrdlo
  7
textstyle19
 50
90.0
 73
2
 44
1.0
  0
LINE
  5
D7
100
AcDbEntity
100
AcDbLine
  8
okvir
 62
256
370
-1
 48
1.0
  6
BYLAYER
 10
20.0000000000000213
 20
110.0
 30
0.0
 11
28.0000000000000213
 21
125.0
 31
0.0
  0
LINE
  5
D8
100
AcDbEntity
100
AcDbLine
  8
okvir
 62
256
370
-1
 48
1.0
  6
BYLAYER
 10
20.0000000000000249
 20
125.0
 30
0.0
 11
28.0000000000000284
 21
110.0
 31
0.0
  0
LINE
  5
D9
100
AcDbEntity
100
AcDbLine
  8
okvir
 62
256
370
-1
 48
1.0
  6
BYLAYER
 10
62.0000000000000213
 20
110.0
 30
0.0
 11
70.0000000000000284
 21
125.0
 31
0.0
  0
LINE
  5
DA
100
AcDbEntity
100
AcDbLine
  8
okvir
 62
256
370
-1
 48
1.0
  6
BYLAYER
 10
62.0000000000000213
 20
125.0
 30
0.0
 11
70.0000000000000284
 21
110.0
 31
0.0
  0
LINE
  5
DB
100
AcDbEntity
100
AcDbLine
  8
okvir
 62
256
370
-1
 48
1.0
  6
BYLAYER
 10
28.0000000000000284
 20
110.0
 30
0.0
 11
62.0000000000000213
 21
125.0
 31
0.0
  0
LINE
  5
DC
100
AcDbEntity
100
AcDbLine
  8
okvir
 62
256
370
-1
 48
1.0
  6
BYLAYER
 10
28.0000000000000213
 20
125.0
 30
0.0
 11
62.0000000000000213
 21
110.0
 31
0.0
  0
LINE
  5
DD
100
AcDbEntity
100
AcDbLine
  8
okvir
 62
256
370
-1
 48
1.0
  6
BYLAYER
 10
45.0000000000000213
 20
117.5
 30
0.0
 11
45.0000000000000213
 21
110.0
 31
0.0
  0
MTEXT
  5
DE
100
AcDbEntity
100
AcDbMText
  8
okvir
 62
256
370
-1
 48
1.0
  6
BYLAYER
 10
66.0000000000000284
 20
117.5
 30
0.0
 40
1.0
 41
0.0
 71
5
 72
1
  1
\H3;mm
  7
textstyle20
 50
0.0
 73
2
 44
1.0
  0
MTEXT
  5
DF
100
AcDbEntity
100
AcDbMText
  8
okvir
 62
256
370
-1
 48
1.0
  6
BYLAYER
 10
45.0000000000000284
 20
129.4000000000000057
 30
0.0
 40
1.0
 41
0.0
 71
5
 72
1
  1
\H4.5;\P#2-4.5
  7
textstyle21
 50
0.0
 73
2
 44
1.0
  0
LINE
  5
E0
100
AcDbEntity
100
AcDbLine
  8
okvir
 62
256
370
-1
 48
1.0
  6
BYLAYER
 10
20.0000000000000249
 20
125.0
 30
0.0
 11
70.0000000000000284
 21
125.0
 31
0.0
  0
LINE
  5
E1
100
AcDbEntity
100
AcDbLine
  8
okvir
 62
256
370
-1
 48
1.0
  6
BYLAYER
 10
20.0000000000000249
 20
125.0
 30
0.0
 11
20.0000000000000284
 21
140.0
 31
0.0
  0
LINE
  5
E2
100
AcDbEntity
100
AcDbLine
  8
okvir
 62
256
370
-1
 48
1.0
  6
BYLAYER
 10
70.0000000000000284
 20
125.0
 30
0.0
 11
70.0000000000000284
 21
140.0
 31
0.0
  0
LINE
  5
E3
100
AcDbEntity
100
AcDbLine
  8
okvir
 62
256
370
-1
 48
1.0
  6
BYLAYER
 10
20.0000000000000284
 20
140.0
 30
0.0
 11
70.0000000000000284
 21
140.0
 31
0.0
  0
CIRCLE
  5
E4
100
AcDbEntity
100
AcDbCircle
  8
okvir
 62
256
370
-1
 48
1.0
  6
BYLAYER
 10
51.0000000000000284
 20
135.0
 30
0.0
 40
2.25
  0
CIRCLE
  5
E5
100
AcDbEntity
100
AcDbCircle
  8
okvir
 62
256
370
-1
 48
1.0
  6
BYLAYER
 10
39.5220854453294947
 20
134.9167270094134778
 30
0.0
 40
1.0
  0
LINE
  5
E6
100
AcDbEntity
100
AcDbLine
  8
okvir
 62
256
370
-1
 48
1.0
  6
BYLAYER
 10
20.0000000000000284
 20
140.0
 30
0.0
 11
28.0000000000000249
 21
140.0
 31
0.0
  0
LINE
  5
E7
100
AcDbEntity
100
AcDbLine
  8
okvir
 62
256
370
-1
 48
1.0
  6
BYLAYER
 10
62.0000000000000284
 20
140.0
 30
0.0
 11
70.0000000000000284
 21
140.0
 31
0.0
  0
LINE
  5
E8
100
AcDbEntity
100
AcDbLine
  8
okvir
 62
256
370
-1
 48
1.0
  6
BYLAYER
 10
28.0000000000000249
 20
140.0
 30
0.0
 11
28.000000000000032
 21
125.0
 31
0.0
  0
LINE
  5
E9
100
AcDbEntity
100
AcDbLine
  8
okvir
 62
256
370
-1
 48
1.0
  6
BYLAYER
 10
62.0000000000000284
 20
140.0
 30
0.0
 11
62.0000000000000284
 21
125.0
 31
0.0
  0
MTEXT
  5
EA
100
AcDbEntity
100
AcDbMText
  8
okvir
 62
256
370
-1
 48
1.0
  6
BYLAYER
 10
24.0000000000000284
 20
132.5
 30
0.0
 40
1.0
 41
0.0
 71
5
 72
1
  1
\H3;svrdlo
  7
textstyle22
 50
90.0
 73
2
 44
1.0
  0
LINE
  5
EB
100
AcDbEntity
100
AcDbLine
  8
okvir
 62
256
370
-1
 48
1.0
  6
BYLAYER
 10
20.0000000000000249
 20
125.0
 30
0.0
 11
28.0000000000000249
 21
140.0
 31
0.0
  0
LINE
  5
EC
100
AcDbEntity
100
AcDbLine
  8
okvir
 62
256
370
-1
 48
1.0
  6
BYLAYER
 10
20.0000000000000284
 20
140.0
 30
0.0
 11
28.000000000000032
 21
125.0
 31
0.0
  0
LINE
  5
ED
100
AcDbEntity
100
AcDbLine
  8
okvir
 62
256
370
-1
 48
1.0
  6
BYLAYER
 10
62.0000000000000284
 20
125.0
 30
0.0
 11
70.0000000000000284
 21
140.0
 31
0.0
  0
LINE
  5
EE
100
AcDbEntity
100
AcDbLine
  8
okvir
 62
256
370
-1
 48
1.0
  6
BYLAYER
 10
62.0000000000000284
 20
140.0
 30
0.0
 11
70.0000000000000284
 21
125.0
 31
0.0
  0
LINE
  5
EF
100
AcDbEntity
100
AcDbLine
  8
okvir
 62
256
370
-1
 48
1.0
  6
BYLAYER
 10
28.000000000000032
 20
125.0
 30
0.0
 11
62.0000000000000284
 21
140.0
 31
0.0
  0
LINE
  5
F0
100
AcDbEntity
100
AcDbLine
  8
okvir
 62
256
370
-1
 48
1.0
  6
BYLAYER
 10
28.0000000000000249
 20
140.0
 30
0.0
 11
62.0000000000000284
 21
125.0
 31
0.0
  0
LINE
  5
F1
100
AcDbEntity
100
AcDbLine
  8
okvir
 62
256
370
-1
 48
1.0
  6
BYLAYER
 10
45.0000000000000284
 20
132.5
 30
0.0
 11
45.0000000000000284
 21
125.0
 31
0.0
  0
MTEXT
  5
F2
100
AcDbEntity
100
AcDbMText
  8
okvir
 62
256
370
-1
 48
1.0
  6
BYLAYER
 10
66.0000000000000284
 20
132.5
 30
0.0
 40
1.0
 41
0.0
 71
5
 72
1
  1
\H3;mm
  7
textstyle23
 50
0.0
 73
2
 44
1.0
  0
MTEXT
  5
F3
100
AcDbEntity
100
AcDbMText
  8
okvir
 62
256
370
-1
 48
1.0
  6
BYLAYER
 10
45.0000000000000284
 20
144.4000000000000057
 30
0.0
 40
1.0
 41
0.0
 71
5
 72
1
  1
\H4.5;\P#2-4.5
  7
textstyle24
 50
0.0
 73
2
 44
1.0
  0
LINE
  5
F4
100
AcDbEntity
100
AcDbLine
  8
okvir
 62
256
370
-1
 48
1.0
  6
BYLAYER
 10
20.0000000000000284
 20
140.0
 30
0.0
 11
70.0000000000000284
 21
140.0
 31
0.0
  0
LINE
  5
F5
100
AcDbEntity
100
AcDbLine
  8
okvir
 62
256
370
-1
 48
1.0
  6
BYLAYER
 10
20.0000000000000284
 20
140.0
 30
0.0
 11
20.000000000000032
 21
155.0
 31
0.0
  0
LINE
  5
F6
100
AcDbEntity
100
AcDbLine
  8
okvir
 62
256
370
-1
 48
1.0
  6
BYLAYER
 10
70.0000000000000284
 20
140.0
 30
0.0
 11
70.0000000000000284
 21
155.0
 31
0.0
  0
LINE
  5
F7
100
AcDbEntity
100
AcDbLine
  8
okvir
 62
256
370
-1
 48
1.0
  6
BYLAYER
 10
20.000000000000032
 20
155.0
 30
0.0
 11
70.0000000000000284
 21
155.0
 31
0.0
  0
CIRCLE
  5
F8
100
AcDbEntity
100
AcDbCircle
  8
okvir
 62
256
370
-1
 48
1.0
  6
BYLAYER
 10
51.0000000000000284
 20
150.0
 30
0.0
 40
2.25
  0
CIRCLE
  5
F9
100
AcDbEntity
100
AcDbCircle
  8
okvir
 62
256
370
-1
 48
1.0
  6
BYLAYER
 10
39.5220854453295019
 20
149.9167270094134778
 30
0.0
 40
1.0
  0
LINE
  5
FA
100
AcDbEntity
100
AcDbLine
  8
okvir
 62
256
370
-1
 48
1.0
  6
BYLAYER
 10
20.000000000000032
 20
155.0
 30
0.0
 11
28.0000000000000284
 21
155.0
 31
0.0
  0
LINE
  5
FB
100
AcDbEntity
100
AcDbLine
  8
okvir
 62
256
370
-1
 48
1.0
  6
BYLAYER
 10
62.0000000000000284
 20
155.0
 30
0.0
 11
70.0000000000000284
 21
155.0
 31
0.0
  0
LINE
  5
FC
100
AcDbEntity
100
AcDbLine
  8
okvir
 62
256
370
-1
 48
1.0
  6
BYLAYER
 10
28.0000000000000284
 20
155.0
 30
0.0
 11
28.0000000000000355
 21
140.0
 31
0.0
  0
LINE
  5
FD
100
AcDbEntity
100
AcDbLine
  8
okvir
 62
256
370
-1
 48
1.0
  6
BYLAYER
 10
62.0000000000000284
 20
155.0
 30
0.0
 11
62.0000000000000284
 21
140.0
 31
0.0
  0
MTEXT
  5
FE
100
AcDbEntity
100
AcDbMText
  8
okvir
 62
256
370
-1
 48
1.0
  6
BYLAYER
 10
24.000000000000032
 20
147.5
 30
0.0
 40
1.0
 41
0.0
 71
5
 72
1
  1
\H3;svrdlo
  7
textstyle25
 50
90.0
 73
2
 44
1.0
  0
LINE
  5
FF
100
AcDbEntity
100
AcDbLine
  8
okvir
 62
256
370
-1
 48
1.0
  6
BYLAYER
 10
20.0000000000000284
 20
140.0
 30
0.0
 11
28.0000000000000284
 21
155.0
 31
0.0
  0
LINE
  5
100
100
AcDbEntity
100
AcDbLine
  8
okvir
 62
256
370
-1
 48
1.0
  6
BYLAYER
 10
20.000000000000032
 20
155.0
 30
0.0
 11
28.0000000000000355
 21
140.0
 31
0.0
  0
LINE
  5
101
100
AcDbEntity
100
AcDbLine
  8
okvir
 62
256
370
-1
 48
1.0
  6
BYLAYER
 10
62.0000000000000284
 20
140.0
 30
0.0
 11
70.0000000000000284
 21
155.0
 31
0.0
  0
LINE
  5
102
100
AcDbEntity
100
AcDbLine
  8
okvir
 62
256
370
-1
 48
1.0
  6
BYLAYER
 10
62.0000000000000284
 20
155.0
 30
0.0
 11
70.0000000000000284
 21
140.0
 31
0.0
  0
LINE
  5
103
100
AcDbEntity
100
AcDbLine
  8
okvir
 62
256
370
-1
 48
1.0
  6
BYLAYER
 10
28.0000000000000355
 20
140.0
 30
0.0
 11
62.0000000000000284
 21
155.0
 31
0.0
  0
LINE
  5
104
100
AcDbEntity
100
AcDbLine
  8
okvir
 62
256
370
-1
 48
1.0
  6
BYLAYER
 10
28.0000000000000284
 20
155.0
 30
0.0
 11
62.0000000000000284
 21
140.0
 31
0.0
  0
LINE
  5
105
100
AcDbEntity
100
AcDbLine
  8
okvir
 62
256
370
-1
 48
1.0
  6
BYLAYER
 10
45.0000000000000284
 20
147.5
 30
0.0
 11
45.0000000000000284
 21
140.0
 31
0.0
  0
MTEXT
  5
106
100
AcDbEntity
100
AcDbMText
  8
okvir
 62
256
370
-1
 48
1.0
  6
BYLAYER
 10
66.0000000000000284
 20
147.5
 30
0.0
 40
1.0
 41
0.0
 71
5
 72
1
  1
\H3;mm
  7
textstyle26
 50
0.0
 73
2
 44
1.0
  0
MTEXT
  5
107
100
AcDbEntity
100
AcDbMText
  8
okvir
 62
256
370
-1
 48
1.0
  6
BYLAYER
 10
45.0000000000000284
 20
159.4000000000000057
 30
0.0
 40
1.0
 41
0.0
 71
5
 72
1
  1
\H4.5;\P#2-4.5
  7
textstyle27
 50
0.0
 73
2
 44
1.0
  0
LINE
  5
108
100
AcDbEntity
100
AcDbLine
  8
okvir
 62
256
370
-1
 48
1.0
  6
BYLAYER
 10
20.000000000000032
 20
155.0
 30
0.0
 11
70.0000000000000284
 21
155.0
 31
0.0
  0
LINE
  5
109
100
AcDbEntity
100
AcDbLine
  8
okvir
 62
256
370
-1
 48
1.0
  6
BYLAYER
 10
20.000000000000032
 20
155.0
 30
0.0
 11
20.0000000000000355
 21
170.0
 31
0.0
  0
LINE
  5
10A
100
AcDbEntity
100
AcDbLine
  8
okvir
 62
256
370
-1
 48
1.0
  6
BYLAYER
 10
70.0000000000000284
 20
155.0
 30
0.0
 11
70.0000000000000284
 21
170.0
 31
0.0
  0
LINE
  5
10B
100
AcDbEntity
100
AcDbLine
  8
okvir
 62
256
370
-1
 48
1.0
  6
BYLAYER
 10
20.0000000000000355
 20
170.0
 30
0.0
 11
70.0000000000000284
 21
170.0
 31
0.0
  0
CIRCLE
  5
10C
100
AcDbEntity
100
AcDbCircle
  8
okvir
 62
256
370
-1
 48
1.0
  6
BYLAYER
 10
51.0000000000000284
 20
165.0
 30
0.0
 40
2.25
  0
CIRCLE
  5
10D
100
AcDbEntity
100
AcDbCircle
  8
okvir
 62
256
370
-1
 48
1.0
  6
BYLAYER
 10
39.522085445329509
 20
164.9167270094134778
 30
0.0
 40
1.0
  0
LINE
  5
10E
100
AcDbEntity
100
AcDbLine
  8
okvir
 62
256
370
-1
 48
1.0
  6
BYLAYER
 10
20.0000000000000355
 20
170.0
 30
0.0
 11
28.000000000000032
 21
170.0
 31
0.0
  0
LINE
  5
10F
100
AcDbEntity
100
AcDbLine
  8
okvir
 62
256
370
-1
 48
1.0
  6
BYLAYER
 10
62.0000000000000284
 20
170.0
 30
0.0
 11
70.0000000000000284
 21
170.0
 31
0.0
  0
LINE
  5
110
100
AcDbEntity
100
AcDbLine
  8
okvir
 62
256
370
-1
 48
1.0
  6
BYLAYER
 10
28.000000000000032
 20
170.0
 30
0.0
 11
28.0000000000000391
 21
155.0
 31
0.0
  0
LINE
  5
111
100
AcDbEntity
100
AcDbLine
  8
okvir
 62
256
370
-1
 48
1.0
  6
BYLAYER
 10
62.0000000000000284
 20
170.0
 30
0.0
 11
62.0000000000000284
 21
155.0
 31
0.0
  0
MTEXT
  5
112
100
AcDbEntity
100
AcDbMText
  8
okvir
 62
256
370
-1
 48
1.0
  6
BYLAYER
 10
24.0000000000000355
 20
162.5
 30
0.0
 40
1.0
 41
0.0
 71
5
 72
1
  1
\H3;svrdlo
  7
textstyle28
 50
90.0
 73
2
 44
1.0
  0
LINE
  5
113
100
AcDbEntity
100
AcDbLine
  8
okvir
 62
256
370
-1
 48
1.0
  6
BYLAYER
 10
20.000000000000032
 20
155.0
 30
0.0
 11
28.000000000000032
 21
170.0
 31
0.0
  0
LINE
  5
114
100
AcDbEntity
100
AcDbLine
  8
okvir
 62
256
370
-1
 48
1.0
  6
BYLAYER
 10
20.0000000000000355
 20
170.0
 30
0.0
 11
28.0000000000000391
 21
155.0
 31
0.0
  0
LINE
  5
115
100
AcDbEntity
100
AcDbLine
  8
okvir
 62
256
370
-1
 48
1.0
  6
BYLAYER
 10
62.0000000000000284
 20
155.0
 30
0.0
 11
70.0000000000000284
 21
170.0
 31
0.0
  0
LINE
  5
116
100
AcDbEntity
100
AcDbLine
  8
okvir
 62
256
370
-1
 48
1.0
  6
BYLAYER
 10
62.0000000000000284
 20
170.0
 30
0.0
 11
70.0000000000000284
 21
155.0
 31
0.0
  0
LINE
  5
117
100
AcDbEntity
100
AcDbLine
  8
okvir
 62
256
370
-1
 48
1.0
  6
BYLAYER
 10
28.0000000000000391
 20
155.0
 30
0.0
 11
62.0000000000000284
 21
170.0
 31
0.0
  0
LINE
  5
118
100
AcDbEntity
100
AcDbLine
  8
okvir
 62
256
370
-1
 48
1.0
  6
BYLAYER
 10
28.000000000000032
 20
170.0
 30
0.0
 11
62.0000000000000284
 21
155.0
 31
0.0
  0
LINE
  5
119
100
AcDbEntity
100
AcDbLine
  8
okvir
 62
256
370
-1
 48
1.0
  6
BYLAYER
 10
45.0000000000000284
 20
162.5
 30
0.0
 11
45.0000000000000284
 21
155.0
 31
0.0
  0
MTEXT
  5
11A
100
AcDbEntity
100
AcDbMText
  8
okvir
 62
256
370
-1
 48
1.0
  6
BYLAYER
 10
66.0000000000000284
 20
162.5
 30
0.0
 40
1.0
 41
0.0
 71
5
 72
1
  1
\H3;mm
  7
textstyle29
 50
0.0
 73
2
 44
1.0
  0
MTEXT
  5
11B
100
AcDbEntity
100
AcDbMText
  8
okvir
 62
256
370
-1
 48
1.0
  6
BYLAYER
 10
45.0000000000000355
 20
174.4000000000000057
 30
0.0
 40
1.0
 41
0.0
 71
5
 72
1
  1
\H4.5;\P#2-4.5
  7
textstyle30
 50
0.0
 73
2
 44
1.0
  0
LINE
  5
11C
100
AcDbEntity
100
AcDbLine
  8
okvir
 62
256
370
-1
 48
1.0
  6
BYLAYER
 10
20.0000000000000355
 20
170.0
 30
0.0
 11
70.0000000000000284
 21
170.0
 31
0.0
  0
LINE
  5
11D
100
AcDbEntity
100
AcDbLine
  8
okvir
 62
256
370
-1
 48
1.0
  6
BYLAYER
 10
20.0000000000000355
 20
170.0
 30
0.0
 11
20.0000000000000391
 21
185.0
 31
0.0
  0
LINE
  5
11E
100
AcDbEntity
100
AcDbLine
  8
okvir
 62
256
370
-1
 48
1.0
  6
BYLAYER
 10
70.0000000000000284
 20
170.0
 30
0.0
 11
70.0000000000000284
 21
185.0
 31
0.0
  0
LINE
  5
11F
100
AcDbEntity
100
AcDbLine
  8
okvir
 62
256
370
-1
 48
1.0
  6
BYLAYER
 10
20.0000000000000391
 20
185.0
 30
0.0
 11
70.0000000000000284
 21
185.0
 31
0.0
  0
CIRCLE
  5
120
100
AcDbEntity
100
AcDbCircle
  8
okvir
 62
256
370
-1
 48
1.0
  6
BYLAYER
 10
51.0000000000000355
 20
180.0
 30
0.0
 40
2.25
  0
CIRCLE
  5
121
100
AcDbEntity
100
AcDbCircle
  8
okvir
 62
256
370
-1
 48
1.0
  6
BYLAYER
 10
39.522085445329509
 20
179.9167270094134778
 30
0.0
 40
1.0
  0
LINE
  5
122
100
AcDbEntity
100
AcDbLine
  8
okvir
 62
256
370
-1
 48
1.0
  6
BYLAYER
 10
20.0000000000000391
 20
185.0
 30
0.0
 11
28.0000000000000355
 21
185.0
 31
0.0
  0
LINE
  5
123
100
AcDbEntity
100
AcDbLine
  8
okvir
 62
256
370
-1
 48
1.0
  6
BYLAYER
 10
62.0000000000000355
 20
185.0
 30
0.0
 11
70.0000000000000284
 21
185.0
 31
0.0
  0
LINE
  5
124
100
AcDbEntity
100
AcDbLine
  8
okvir
 62
256
370
-1
 48
1.0
  6
BYLAYER
 10
28.0000000000000355
 20
185.0
 30
0.0
 11
28.0000000000000426
 21
170.0
 31
0.0
  0
LINE
  5
125
100
AcDbEntity
100
AcDbLine
  8
okvir
 62
256
370
-1
 48
1.0
  6
BYLAYER
 10
62.0000000000000355
 20
185.0
 30
0.0
 11
62.0000000000000355
 21
170.0
 31
0.0
  0
MTEXT
  5
126
100
AcDbEntity
100
AcDbMText
  8
okvir
 62
256
370
-1
 48
1.0
  6
BYLAYER
 10
24.0000000000000391
 20
177.5
 30
0.0
 40
1.0
 41
0.0
 71
5
 72
1
  1
\H3;svrdlo
  7
textstyle31
 50
90.0
 73
2
 44
1.0
  0
LINE
  5
127
100
AcDbEntity
100
AcDbLine
  8
okvir
 62
256
370
-1
 48
1.0
  6
BYLAYER
 10
20.0000000000000355
 20
170.0
 30
0.0
 11
28.0000000000000355
 21
185.0
 31
0.0
  0
LINE
  5
128
100
AcDbEntity
100
AcDbLine
  8
okvir
 62
256
370
-1
 48
1.0
  6
BYLAYER
 10
20.0000000000000391
 20
185.0
 30
0.0
 11
28.0000000000000426
 21
170.0
 31
0.0
  0
LINE
  5
129
100
AcDbEntity
100
AcDbLine
  8
okvir
 62
256
370
-1
 48
1.0
  6
BYLAYER
 10
62.0000000000000355
 20
170.0
 30
0.0
 11
70.0000000000000284
 21
185.0
 31
0.0
  0
LINE
  5
12A
100
AcDbEntity
100
AcDbLine
  8
okvir
 62
256
370
-1
 48
1.0
  6
BYLAYER
 10
62.0000000000000355
 20
185.0
 30
0.0
 11
70.0000000000000284
 21
170.0
 31
0.0
  0
LINE
  5
12B
100
AcDbEntity
100
AcDbLine
  8
okvir
 62
256
370
-1
 48
1.0
  6
BYLAYER
 10
28.0000000000000426
 20
170.0
 30
0.0
 11
62.0000000000000355
 21
185.0
 31
0.0
  0
LINE
  5
12C
100
AcDbEntity
100
AcDbLine
  8
okvir
 62
256
370
-1
 48
1.0
  6
BYLAYER
 10
28.0000000000000355
 20
185.0
 30
0.0
 11
62.0000000000000355
 21
170.0
 31
0.0
  0
LINE
  5
12D
100
AcDbEntity
100
AcDbLine
  8
okvir
 62
256
370
-1
 48
1.0
  6
BYLAYER
 10
45.0000000000000355
 20
177.5
 30
0.0
 11
45.0000000000000355
 21
170.0
 31
0.0
  0
MTEXT
  5
12E
100
AcDbEntity
100
AcDbMText
  8
okvir
 62
256
370
-1
 48
1.0
  6
BYLAYER
 10
66.0000000000000284
 20
177.5
 30
0.0
 40
1.0
 41
0.0
 71
5
 72
1
  1
\H3;mm
  7
textstyle32
 50
0.0
 73
2
 44
1.0
  0
ENDSEC
  0
SECTION
  2
OBJECTS
  0
DICTIONARY
  5
C
100
AcDbDictionary
280
0
281
1
  3
ACAD_GROUP
350
D
  3
ACAD_LAYOUT
350
1A
  3
ACAD_MLINESTYLE
350
17
  3
ACAD_PLOTSETTINGS
350
19
  3
ACAD_PLOTSTYLENAME
350
E
  3
AcDbVariableDictionary
350
12F
  3
QCAD_OBJECTS
350
130
  0
DICTIONARY
  5
D
100
AcDbDictionary
280
0
281
1
  0
ACDBDICTIONARYWDFLT
  5
E
100
AcDbDictionary
281
1
  3
Normal
350
F
100
AcDbDictionaryWithDefault
340
F
  0
ACDBPLACEHOLDER
  5
F
  0
DICTIONARY
  5
17
100
AcDbDictionary
280
0
281
1
  3
Standard
350
18
  0
MLINESTYLE
  5
18
100
AcDbMlineStyle
  2
STANDARD
 70
0
  3

 62
256
 51
90.0
 52
90.0
 71
2
 49
0.5
 62
256
  6
BYLAYER
 49
-0.5
 62
256
  6
BYLAYER
  0
DICTIONARY
  5
19
100
AcDbDictionary
280
0
281
1
  0
DICTIONARY
  5
1A
100
AcDbDictionary
281
1
  3
Layout1
350
1E
  3
Layout2
350
26
  3
Model
350
22
  0
LAYOUT
  5
1E
100
AcDbPlotSettings
  1

  2
none_device
  4

  6

 40
0.0
 41
0.0
 42
0.0
 43
0.0
 44
0.0
 45
0.0
 46
0.0
 47
0.0
 48
0.0
 49
0.0
140
0.0
141
0.0
142
1.0
143
1.0
 70
688
 72
0
 73
0
 74
5
  7

 75
16
147
1.0
148
0.0
149
0.0
100
AcDbLayout
  1
Layout1
 70
1
 71
1
 10
0.0
 20
0.0
 11
420.0
 21
297.0
 12
0.0
 22
0.0
 32
0.0
 14
100000000000000000000.0
 24
100000000000000000000.0
 34
100000000000000000000.0
 15
-100000000000000000000.0
 25
-100000000000000000000.0
 35
-100000000000000000000.0
146
0.0
 13
0.0
 23
0.0
 33
0.0
 16
1.0
 26
0.0
 36
0.0
 17
0.0
 27
1.0
 37
0.0
 76
0
330
1B
  0
LAYOUT
  5
22
100
AcDbPlotSettings
  1

  2
none_device
  4

  6

 40
0.0
 41
0.0
 42
0.0
 43
0.0
 44
0.0
 45
0.0
 46
0.0
 47
0.0
 48
0.0
 49
0.0
140
0.0
141
0.0
142
1.0
143
1.0
 70
1712
 72
0
 73
0
 74
0
  7

 75
0
147
1.0
148
0.0
149
0.0
100
AcDbLayout
  1
Model
 70
1
 71
0
 10
0.0
 20
0.0
 11
12.0
 21
9.0
 12
0.0
 22
0.0
 32
0.0
 14
0.0
 24
0.0
 34
0.0
 15
0.0
 25
0.0
 35
0.0
146
0.0
 13
0.0
 23
0.0
 33
0.0
 16
1.0
 26
0.0
 36
0.0
 17
0.0
 27
1.0
 37
0.0
 76
0
330
1F
  0
LAYOUT
  5
26
100
AcDbPlotSettings
  1

  2
none_device
  4

  6

 40
0.0
 41
0.0
 42
0.0
 43
0.0
 44
0.0
 45
0.0
 46
0.0
 47
0.0
 48
0.0
 49
0.0
140
0.0
141
0.0
142
1.0
143
1.0
 70
688
 72
0
 73
0
 74
5
  7

 75
16
147
1.0
148
0.0
149
0.0
100
AcDbLayout
  1
Layout2
 70
1
 71
2
 10
0.0
 20
0.0
 11
12.0
 21
9.0
 12
0.0
 22
0.0
 32
0.0
 14
0.0
 24
0.0
 34
0.0
 15
0.0
 25
0.0
 35
0.0
146
0.0
 13
0.0
 23
0.0
 33
0.0
 16
1.0
 26
0.0
 36
0.0
 17
0.0
 27
1.0
 37
0.0
 76
0
330
23
  0
DICTIONARY
  5
12F
100
AcDbDictionary
281
1
  3
DIMASSOC
350
132
  3
HIDETEXT
350
131
  0
DICTIONARYVAR
  5
131
100
DictionaryVariables
280
0
  1
2
  0
DICTIONARYVAR
  5
132
100
DictionaryVariables
280
0
  1
1
  0
DICTIONARY
  5
130
100
AcDbDictionary
281
1
  3
Grid/DisplayGrid00
350
133
  3
Grid/DisplayGrid01
350
134
  3
Grid/DisplayGrid02
350
135
  3
Grid/DisplayGrid03
350
136
  3
Grid/GridSpacingX00
350
137
  3
Grid/GridSpacingX01
350
138
  3
Grid/GridSpacingX02
350
139
  3
Grid/GridSpacingX03
350
13A
  3
Grid/GridSpacingY00
350
13B
  3
Grid/GridSpacingY01
350
13C
  3
Grid/GridSpacingY02
350
13D
  3
Grid/GridSpacingY03
350
13E
  3
Grid/IsometricGrid00
350
13F
  3
Grid/IsometricGrid01
350
140
  3
Grid/IsometricGrid02
350
141
  3
Grid/IsometricGrid03
350
142
  3
Grid/IsometricProjection00
350
143
  3
Grid/IsometricProjection01
350
144
  3
Grid/IsometricProjection02
350
145
  3
Grid/IsometricProjection03
350
146
  3
Grid/MetaGridSpacingX00
350
147
  3
Grid/MetaGridSpacingX01
350
148
  3
Grid/MetaGridSpacingX02
350
149
  3
Grid/MetaGridSpacingX03
350
14A
  3
Grid/MetaGridSpacingY00
350
14B
  3
Grid/MetaGridSpacingY01
350
14C
  3
Grid/MetaGridSpacingY02
350
14D
  3
Grid/MetaGridSpacingY03
350
14E
  3
MultiPageSettings/Columns
350
14F
  3
MultiPageSettings/GlueMarginsBottom
350
150
  3
MultiPageSettings/GlueMarginsLeft
350
151
  3
MultiPageSettings/GlueMarginsRight
350
152
  3
MultiPageSettings/GlueMarginsTop
350
153
  3
MultiPageSettings/PrintCropMarks
350
154
  3
MultiPageSettings/Rows
350
155
  3
PageSettings/OffsetX
350
156
  3
PageSettings/OffsetY
350
157
  3
PageSettings/PageOrientation
350
158
  3
PageSettings/PaperHeight
350
159
  3
PageSettings/PaperWidth
350
15A
  3
PageSettings/Scale
350
15B
  3
PageSettings/ShowPaperBorders
350
15C
  3
UnitSettings/PaperUnit
350
15D
  0
XRECORD
  5
133
330
130
100
AcDbXrecord
280
1
290
1
  0
XRECORD
  5
134
330
130
100
AcDbXrecord
280
1
290
1
  0
XRECORD
  5
135
330
130
100
AcDbXrecord
280
1
290
1
  0
XRECORD
  5
136
330
130
100
AcDbXrecord
280
1
290
1
  0
XRECORD
  5
137
330
130
100
AcDbXrecord
280
1
1000
auto
  0
XRECORD
  5
138
330
130
100
AcDbXrecord
280
1
1000
auto
  0
XRECORD
  5
139
330
130
100
AcDbXrecord
280
1
1000
auto
  0
XRECORD
  5
13A
330
130
100
AcDbXrecord
280
1
1000
auto
  0
XRECORD
  5
13B
330
130
100
AcDbXrecord
280
1
1000
auto
  0
XRECORD
  5
13C
330
130
100
AcDbXrecord
280
1
1000
auto
  0
XRECORD
  5
13D
330
130
100
AcDbXrecord
280
1
1000
auto
  0
XRECORD
  5
13E
330
130
100
AcDbXrecord
280
1
1000
auto
  0
XRECORD
  5
13F
330
130
100
AcDbXrecord
280
1
290
0
  0
XRECORD
  5
140
330
130
100
AcDbXrecord
280
1
290
0
  0
XRECORD
  5
141
330
130
100
AcDbXrecord
280
1
290
0
  0
XRECORD
  5
142
330
130
100
AcDbXrecord
280
1
290
0
  0
XRECORD
  5
143
330
130
100
AcDbXrecord
280
1
 90
0
  0
XRECORD
  5
144
330
130
100
AcDbXrecord
280
1
 90
0
  0
XRECORD
  5
145
330
130
100
AcDbXrecord
280
1
 90
0
  0
XRECORD
  5
146
330
130
100
AcDbXrecord
280
1
 90
0
  0
XRECORD
  5
147
330
130
100
AcDbXrecord
280
1
1000
auto
  0
XRECORD
  5
148
330
130
100
AcDbXrecord
280
1
1000
auto
  0
XRECORD
  5
149
330
130
100
AcDbXrecord
280
1
1000
auto
  0
XRECORD
  5
14A
330
130
100
AcDbXrecord
280
1
1000
auto
  0
XRECORD
  5
14B
330
130
100
AcDbXrecord
280
1
1000
auto
  0
XRECORD
  5
14C
330
130
100
AcDbXrecord
280
1
1000
auto
  0
XRECORD
  5
14D
330
130
100
AcDbXrecord
280
1
1000
auto
  0
XRECORD
  5
14E
330
130
100
AcDbXrecord
280
1
1000
auto
  0
XRECORD
  5
14F
330
130
100
AcDbXrecord
280
1
 90
1
  0
XRECORD
  5
150
330
130
100
AcDbXrecord
280
1
 40
10.0
  0
XRECORD
  5
151
330
130
100
AcDbXrecord
280
1
 40
10.0
  0
XRECORD
  5
152
330
130
100
AcDbXrecord
280
1
 40
10.0
  0
XRECORD
  5
153
330
130
100
AcDbXrecord
280
1
 40
10.0
  0
XRECORD
  5
154
330
130
100
AcDbXrecord
280
1
290
0
  0
XRECORD
  5
155
330
130
100
AcDbXrecord
280
1
 90
1
  0
XRECORD
  5
156
330
130
100
AcDbXrecord
280
1
 40
0.0
  0
XRECORD
  5
157
330
130
100
AcDbXrecord
280
1
 40
0.0
  0
XRECORD
  5
158
330
130
100
AcDbXrecord
280
1
1000
Portrait
  0
XRECORD
  5
159
330
130
100
AcDbXrecord
280
1
 40
297.0
  0
XRECORD
  5
15A
330
130
100
AcDbXrecord
280
1
 40
210.0
  0
XRECORD
  5
15B
330
130
100
AcDbXrecord
280
1
1000
1:1
  0
XRECORD
  5
15C
330
130
100
AcDbXrecord
280
1
290
1
  0
XRECORD
  5
15D
330
130
100
AcDbXrecord
280
1
 90
4
  0
ENDSEC
  0
EOF
